<?xml version="1.0" encoding="UTF-8" standalone="no"?>
<svg
   class="w-100 animate"
   version="1.1"
   id="svg25"
   width="150"
   height="150"
   viewBox="0 0 278.08039 278.40039"
   sodipodi:docname="cs.ai"
   xmlns:inkscape="http://www.inkscape.org/namespaces/inkscape"
   xmlns:sodipodi="http://sodipodi.sourceforge.net/DTD/sodipodi-0.dtd"
   xmlns="http://www.w3.org/2000/svg"
   xmlns:svg="http://www.w3.org/2000/svg">
  <defs
     id="defs29">
    <clipPath
       clipPathUnits="userSpaceOnUse"
       id="clipPath47">
      <path
         d="M 0,841.89 H 595.28 V 0 H 0 Z"
         id="path45" />
    </clipPath>
  </defs>
  <sodipodi:namedview
     id="namedview27"
     pagecolor="#ffffff"
     bordercolor="#000000"
     borderopacity="0.25"
     inkscape:showpageshadow="2"
     inkscape:pageopacity="0.0"
     inkscape:pagecheckerboard="0"
     inkscape:deskcolor="#d1d1d1"
     showgrid="false"
     inkscape:zoom="0.53183906"
     inkscape:cx="396.73656"
     inkscape:cy="518.01385"
     inkscape:window-width="1482"
     inkscape:window-height="800"
     inkscape:window-x="54"
     inkscape:window-y="27"
     inkscape:window-maximized="1"
     inkscape:current-layer="g43" />
  <g
     id="g33"
     inkscape:groupmode="layer"
     inkscape:label="Page 1"
     transform="matrix(1.3333333,0,0,-1.3333333,-257.60065,759.62558)">
    <g
       id="g41">
      <g
         id="g43"
         clip-path="url(#clipPath47)">
        <g
           id="g49"
           transform="translate(193.2007,512.8213)"
           inkscape:export-filename="../bd887bd3/logo.svg"
           inkscape:export-xdpi="96"
           inkscape:export-ydpi="96">
          <path
             d="m 0,0 v 44.658 c 0,6.628 5.372,12.001 11.999,12.001 h 43.935 c 0.002,-0.161 0.006,-0.32 0.006,-0.48 C 55.94,25.23 30.917,0.129 0,0 M 81.805,42.997 C 74.408,30.591 77.324,14.259 88.293,5.465 80.681,8.333 71.444,7.774 64.22,3.738 51.636,-3.292 45.966,-18.925 51.014,-32.008 45.788,-25.69 37.487,-21.585 29.357,-21.471 14.915,-21.268 2.21,-31.932 0.078,-45.826 0.054,-45.679 0.026,-45.534 0,-45.389 v 39.351 c 34.252,0.13 61.979,27.93 61.979,62.208 0,0.163 -0.005,0.325 -0.006,0.489 h 38.965 c 0.275,-0.052 0.547,-0.106 0.824,-0.148 C 93.737,55.188 86.044,50.103 81.805,42.997"
             style="fill:#f68c20;fill-opacity:1;fill-rule:evenodd;stroke:none"
             id="path51" />
        </g>
        <g
           id="g53"
           transform="translate(248.8765,427.0776)">
          <path
             d="m 0,0 c 65.748,42.721 135.514,40.771 152.884,39.872 v -61.187 c -32.2,20.735 -62.519,27.84 -125.52,-4.523 -46.78,-24.03 -68.631,-32.911 -81.823,-33.588 -0.778,1.59 -1.217,3.377 -1.217,5.267 v 25.883 C -43.734,-24.364 -25.694,-16.695 0,0"
             style="fill:#1e9cce;fill-opacity:1;fill-rule:evenodd;stroke:none"
             id="path55" />
        </g>
        <g
           id="g57"
           transform="translate(204.9604,360.9189)">
          <path
             d="M 0,0 C -2.75,0 -5.229,0.881 -7.252,2.434 7.998,6.453 39.263,19.982 58.799,30.24 124.943,64.973 160.36,61.989 196.612,39.547 V 11.953 C 196.612,5.324 191.428,0 184.799,0 Z"
             style="fill:#f0e327;fill-opacity:1;fill-rule:evenodd;stroke:none"
             id="path59" />
        </g>
        <g
           id="g61"
           transform="translate(389.7598,569.7192)">
          <path
             d="m 0,0 c 6.628,0 12.001,-5.373 12.001,-12 v -87.82 c -15.95,1.903 -87.348,7.112 -158.913,-40.024 -21.697,-14.291 -37.758,-22.945 -49.647,-27.956 v 57.401 c 2.307,15.035 16.162,25.856 31.794,25.635 8.801,-0.123 17.785,-4.567 23.441,-11.405 -5.463,14.161 0.673,31.08 14.294,38.69 7.818,4.369 17.816,4.974 26.054,1.87 -11.871,9.518 -15.028,27.195 -7.022,40.622 4.588,7.691 12.912,13.315 21.599,14.748 C -85.879,-0.239 0,0 0,0"
             style="fill:#4ac5f1;fill-opacity:1;fill-rule:evenodd;stroke:none"
             id="path63" />
        </g>
      </g>
    </g>
  </g>
</svg>
