<?xml version="1.0" encoding="UTF-8" standalone="no"?>
<!DOCTYPE svg PUBLIC "-//W3C//DTD SVG 1.1//EN" "http://www.w3.org/Graphics/SVG/1.1/DTD/svg11.dtd">
<svg id="laravelista-logo" class="animate" width="100%" height="100%" viewBox="0 0 34 34" version="1.1" xmlns="http://www.w3.org/2000/svg" xmlns:xlink="http://www.w3.org/1999/xlink" xml:space="preserve" xmlns:serif="http://www.serif.com/" style="fill-rule:evenodd;clip-rule:evenodd;stroke-linejoin:round;stroke-miterlimit:2;">
    <g transform="matrix(1,0,0,1,-1.23358e-15,-57.6389)">
        <path d="M27.081,88.188C26.442,88.176 25.912,88.035 25.356,87.722C24.271,87.06 23.646,85.99 23.613,84.719C23.646,83.447 24.271,82.379 25.356,81.715C25.912,81.406 26.442,81.262 27.081,81.251C27.968,81.236 28.706,80.522 28.706,79.626C28.706,78.75 27.968,77.985 27.081,77.999C25.965,78.018 24.908,78.289 23.926,78.797C23.856,78.831 23.783,78.865 23.714,78.908C21.643,80.176 20.425,82.293 20.361,84.719L20.361,84.726C20.31,86.657 18.832,88.136 16.9,88.188C14.971,88.136 13.492,86.657 13.44,84.726L13.44,84.719C13.458,84.021 13.108,83.561 12.635,83.329C12.392,83.182 12.112,83.093 11.814,83.093C11.485,83.093 11.176,83.196 10.918,83.369C10.488,83.611 10.181,84.054 10.19,84.701C10.19,84.707 10.189,84.714 10.189,84.719C10.136,86.654 8.654,88.135 6.719,88.188C4.785,88.135 3.304,86.654 3.251,84.719L3.251,64.36C3.304,62.422 4.785,60.943 6.719,60.89L27.081,60.89C29.017,60.943 30.497,62.424 30.549,64.36L30.549,84.719C30.497,86.654 29.017,88.135 27.081,88.188M27.081,57.639L6.719,57.639C2.993,57.739 0.1,60.632 0,64.36L0,84.719C0.097,88.322 2.803,91.133 6.349,91.41C6.464,91.433 6.588,91.442 6.719,91.439C6.853,91.442 6.976,91.433 7.092,91.41C9.001,91.262 10.667,90.379 11.811,89.031C12.956,90.379 14.619,91.262 16.528,91.41C16.643,91.433 16.768,91.442 16.9,91.439C17.033,91.442 17.158,91.433 17.274,91.41C19.176,91.264 20.833,90.385 21.976,89.043C22.46,89.614 23.042,90.119 23.714,90.529C23.783,90.575 23.856,90.608 23.926,90.642C24.908,91.15 25.965,91.419 27.081,91.439C30.81,91.338 33.7,88.444 33.8,84.719L33.8,64.36C33.7,60.632 30.81,57.739 27.081,57.639"/>
        <path d="M24.617,67.321C22.521,67.321 22.521,70.572 24.617,70.572C26.714,70.572 26.714,67.321 24.617,67.321"/>
    </g>
</svg>
